<svg xmlns="http://www.w3.org/2000/svg" xmlns:xlink="http://www.w3.org/1999/xlink" width="278pt" height="394pt" viewBox="0 0 278 394"><g id="graph1" class="graph" transform="scale(1 1) rotate(0) translate(4 390)"><title>_anonymous_0</title><g id="node1" class="node"><title>initial</title><ellipse cx="139" cy="-377" fill="#000" stroke="#000" rx="9" ry="9"/></g><g id="node2" class="node"><title>s1_1</title><polygon fill="#fff" stroke="#fff" points="191.617 -331.3 86.383 -331.3 74.383 -319.3 74.383 -234.7 86.383 -222.7 191.617 -222.7 203.617 -234.7 203.617 -319.3 191.617 -331.3"/><path fill="#fff" stroke="#fff" d="M86.3833,-331.3C80.3833,-331.3 74.3833,-325.3 74.3833,-319.3"/><path fill="#fff" stroke="#fff" d="M74.3833,-234.7C74.3833,-228.7 80.3833,-222.7 86.3833,-222.7"/><path fill="#fff" stroke="#fff" d="M191.617,-222.7C197.617,-222.7 203.617,-228.7 203.617,-234.7"/><path fill="#fff" stroke="#fff" d="M203.617,-319.3C203.617,-325.3 197.617,-331.3 191.617,-331.3"/><polyline fill="none" stroke="#000" points="191.617 -331.3 86.383 -331.3"/><path fill="none" stroke="#000" d="M86.3833,-331.3C80.3833,-331.3 74.3833,-325.3 74.3833,-319.3"/><polyline fill="none" stroke="#000" points="74.383 -319.3 74.383 -234.7"/><path fill="none" stroke="#000" d="M74.3833,-234.7C74.3833,-228.7 80.3833,-222.7 86.3833,-222.7"/><polyline fill="none" stroke="#000" points="86.383 -222.7 191.617 -222.7"/><path fill="none" stroke="#000" d="M191.617,-222.7C197.617,-222.7 203.617,-228.7 203.617,-234.7"/><polyline fill="none" stroke="#000" points="203.617 -234.7 203.617 -319.3"/><path fill="none" stroke="#000" d="M203.617,-319.3C203.617,-325.3 197.617,-331.3 191.617,-331.3"/><text x="139" y="-314.8" font-family="Times,serif" font-size="14" text-anchor="middle">Program</text><text x="139" y="-298" font-family="Times,serif" font-size="14" text-anchor="middle">ForStatement</text><text x="139" y="-281.2" font-family="Times,serif" font-size="14" text-anchor="middle">VariableDeclaration</text><text x="139" y="-264.4" font-family="Times,serif" font-size="14" text-anchor="middle">VariableDeclarator</text><text x="139" y="-247.6" font-family="Times,serif" font-size="14" text-anchor="middle">Identifier (i)</text><text x="139" y="-230.8" font-family="Times,serif" font-size="14" text-anchor="middle">Literal (0)</text></g><g id="edge2" class="edge"><title>initial-&gt;s1_1</title><path fill="none" stroke="#000" d="M139,-367.98C139,-361.675 139,-352.238 139,-341.813"/><polygon fill="#000" stroke="#000" points="142.5 -341.586 139 -331.586 135.5 -341.586 142.5 -341.586"/></g><g id="node3" class="node"><title>s1_2</title><polygon fill="#fff" stroke="#fff" points="185.233 -186.401 92.767 -186.401 80.767 -174.401 80.767 -139.599 92.767 -127.599 185.233 -127.599 197.233 -139.599 197.233 -174.401 185.233 -186.401"/><path fill="#fff" stroke="#fff" d="M92.7673,-186.401C86.7673,-186.401 80.7673,-180.401 80.7673,-174.401"/><path fill="#fff" stroke="#fff" d="M80.7673,-139.599C80.7673,-133.599 86.7673,-127.599 92.7673,-127.599"/><path fill="#fff" stroke="#fff" d="M185.233,-127.599C191.233,-127.599 197.233,-133.599 197.233,-139.599"/><path fill="#fff" stroke="#fff" d="M197.233,-174.401C197.233,-180.401 191.233,-186.401 185.233,-186.401"/><polyline fill="none" stroke="#000" points="185.233 -186.401 92.767 -186.401"/><path fill="none" stroke="#000" d="M92.7673,-186.401C86.7673,-186.401 80.7673,-180.401 80.7673,-174.401"/><polyline fill="none" stroke="#000" points="80.767 -174.401 80.767 -139.599"/><path fill="none" stroke="#000" d="M80.7673,-139.599C80.7673,-133.599 86.7673,-127.599 92.7673,-127.599"/><polyline fill="none" stroke="#000" points="92.767 -127.599 185.233 -127.599"/><path fill="none" stroke="#000" d="M185.233,-127.599C191.233,-127.599 197.233,-133.599 197.233,-139.599"/><polyline fill="none" stroke="#000" points="197.233 -139.599 197.233 -174.401"/><path fill="none" stroke="#000" d="M197.233,-174.401C197.233,-180.401 191.233,-186.401 185.233,-186.401"/><text x="139" y="-169.6" font-family="Times,serif" font-size="14" text-anchor="middle">BinaryExpression</text><text x="139" y="-152.8" font-family="Times,serif" font-size="14" text-anchor="middle">Identifier (i)</text><text x="139" y="-136" font-family="Times,serif" font-size="14" text-anchor="middle">Literal (10)</text></g><g id="edge3" class="edge"><title>s1_1-&gt;s1_2</title><path fill="none" stroke="#000" d="M139,-222.524C139,-213.777 139,-204.867 139,-196.572"/><polygon fill="#000" stroke="#000" points="142.5 -196.452 139 -186.452 135.5 -196.452 142.5 -196.452"/></g><g id="node4" class="node"><title>s1_3</title><polygon fill="#fff" stroke="#fff" points="122.147 -92 11.853 -92 -.147 -80 -.147 -12 11.853 0 122.147 0 134.147 -12 134.147 -80 122.147 -92"/><path fill="#fff" stroke="#fff" d="M11.8526,-92C5.85263,-92 -0.147372,-86 -0.147372,-80"/><path fill="#fff" stroke="#fff" d="M-0.147372,-12C-0.147372,-6 5.85263,0 11.8526,0"/><path fill="#fff" stroke="#fff" d="M122.147,0C128.147,0 134.147,-6 134.147,-12"/><path fill="#fff" stroke="#fff" d="M134.147,-80C134.147,-86 128.147,-92 122.147,-92"/><polyline fill="none" stroke="#000" points="122.147 -92 11.853 -92"/><path fill="none" stroke="#000" d="M11.8526,-92C5.85263,-92 -0.147372,-86 -0.147372,-80"/><polyline fill="none" stroke="#000" points="-.147 -80 -.147 -12"/><path fill="none" stroke="#000" d="M-0.147372,-12C-0.147372,-6 5.85263,0 11.8526,0"/><polyline fill="none" stroke="#000" points="11.853 0 122.147 0"/><path fill="none" stroke="#000" d="M122.147,0C128.147,0 134.147,-6 134.147,-12"/><polyline fill="none" stroke="#000" points="134.147 -12 134.147 -80"/><path fill="none" stroke="#000" d="M134.147,-80C134.147,-86 128.147,-92 122.147,-92"/><text x="67" y="-75.4" font-family="Times,serif" font-size="14" text-anchor="middle">BlockStatement</text><text x="67" y="-58.6" font-family="Times,serif" font-size="14" text-anchor="middle">ExpressionStatement</text><text x="67" y="-41.8" font-family="Times,serif" font-size="14" text-anchor="middle">CallExpression</text><text x="67" y="-25" font-family="Times,serif" font-size="14" text-anchor="middle">Identifier (foo)</text><text x="67" y="-8.2" font-family="Times,serif" font-size="14" text-anchor="middle">Identifier (i)</text></g><g id="edge4" class="edge"><title>s1_2-&gt;s1_3</title><path fill="none" stroke="#000" d="M120.271,-127.646C114.784,-119.339 108.595,-109.971 102.429,-100.636"/><polygon fill="#000" stroke="#000" points="105.226 -98.519 96.793 -92.104 99.385 -102.377 105.226 -98.519"/></g><g id="node5" class="node"><title>s1_4</title><polygon fill="#fff" stroke="#fff" points="257.977 -66.602 164.023 -66.602 152.023 -54.602 152.023 -37.398 164.023 -25.398 257.977 -25.398 269.977 -37.398 269.977 -54.602 257.977 -66.602"/><path fill="#fff" stroke="#fff" d="M164.023,-66.6019C158.023,-66.6019 152.023,-60.6019 152.023,-54.6019"/><path fill="#fff" stroke="#fff" d="M152.023,-37.3981C152.023,-31.3981 158.023,-25.3981 164.023,-25.3981"/><path fill="#fff" stroke="#fff" d="M257.977,-25.3981C263.977,-25.3981 269.977,-31.3981 269.977,-37.3981"/><path fill="#fff" stroke="#fff" d="M269.977,-54.6019C269.977,-60.6019 263.977,-66.6019 257.977,-66.6019"/><polyline fill="none" stroke="#000" points="257.977 -66.602 164.023 -66.602"/><path fill="none" stroke="#000" d="M164.023,-66.6019C158.023,-66.6019 152.023,-60.6019 152.023,-54.6019"/><polyline fill="none" stroke="#000" points="152.023 -54.602 152.023 -37.398"/><path fill="none" stroke="#000" d="M152.023,-37.3981C152.023,-31.3981 158.023,-25.3981 164.023,-25.3981"/><polyline fill="none" stroke="#000" points="164.023 -25.398 257.977 -25.398"/><path fill="none" stroke="#000" d="M257.977,-25.3981C263.977,-25.3981 269.977,-31.3981 269.977,-37.3981"/><polyline fill="none" stroke="#000" points="269.977 -37.398 269.977 -54.602"/><path fill="none" stroke="#000" d="M269.977,-54.6019C269.977,-60.6019 263.977,-66.6019 257.977,-66.6019"/><text x="211" y="-50.2" font-family="Times,serif" font-size="14" text-anchor="middle">UpdateExpression</text><text x="211" y="-33.4" font-family="Times,serif" font-size="14" text-anchor="middle">Identifier (i)</text></g><g id="edge6" class="edge"><title>s1_2-&gt;s1_4</title><path fill="none" stroke="none" d="M157.729,-127.646C168.417,-111.466 181.766,-91.2577 192.427,-75.1175"/><polygon fill="none" stroke="none" points="195.448 -76.894 198.039 -66.621 189.607 -73.036 195.448 -76.894"/></g></g></svg>