<svg xmlns="http://www.w3.org/2000/svg" xmlns:xlink="http://www.w3.org/1999/xlink" width="136pt" height="344pt" viewBox="0 0 136 344"><g id="graph1" class="graph" transform="scale(1 1) rotate(0) translate(4 340)"><title>_anonymous_0</title><g id="node1" class="node"><title>initial</title><ellipse cx="64" cy="-327" fill="#000" stroke="#000" rx="9" ry="9"/></g><g id="node2" class="node"><title>s1_1</title><polygon fill="#fff" stroke="#fff" points="116.617 -281.3 11.383 -281.3 -.617 -269.3 -.617 -184.7 11.383 -172.7 116.617 -172.7 128.617 -184.7 128.617 -269.3 116.617 -281.3"/><path fill="#fff" stroke="#fff" d="M11.3833,-281.3C5.38328,-281.3 -0.616716,-275.3 -0.616716,-269.3"/><path fill="#fff" stroke="#fff" d="M-0.616716,-184.7C-0.616716,-178.7 5.38328,-172.7 11.3833,-172.7"/><path fill="#fff" stroke="#fff" d="M116.617,-172.7C122.617,-172.7 128.617,-178.7 128.617,-184.7"/><path fill="#fff" stroke="#fff" d="M128.617,-269.3C128.617,-275.3 122.617,-281.3 116.617,-281.3"/><polyline fill="none" stroke="#000" points="116.617 -281.3 11.383 -281.3"/><path fill="none" stroke="#000" d="M11.3833,-281.3C5.38328,-281.3 -0.616716,-275.3 -0.616716,-269.3"/><polyline fill="none" stroke="#000" points="-.617 -269.3 -.617 -184.7"/><path fill="none" stroke="#000" d="M-0.616716,-184.7C-0.616716,-178.7 5.38328,-172.7 11.3833,-172.7"/><polyline fill="none" stroke="#000" points="11.383 -172.7 116.617 -172.7"/><path fill="none" stroke="#000" d="M116.617,-172.7C122.617,-172.7 128.617,-178.7 128.617,-184.7"/><polyline fill="none" stroke="#000" points="128.617 -184.7 128.617 -269.3"/><path fill="none" stroke="#000" d="M128.617,-269.3C128.617,-275.3 122.617,-281.3 116.617,-281.3"/><text x="64" y="-264.8" font-family="Times,serif" font-size="14" text-anchor="middle">Program</text><text x="64" y="-248" font-family="Times,serif" font-size="14" text-anchor="middle">ForStatement</text><text x="64" y="-231.2" font-family="Times,serif" font-size="14" text-anchor="middle">VariableDeclaration</text><text x="64" y="-214.4" font-family="Times,serif" font-size="14" text-anchor="middle">VariableDeclarator</text><text x="64" y="-197.6" font-family="Times,serif" font-size="14" text-anchor="middle">Identifier (i)</text><text x="64" y="-180.8" font-family="Times,serif" font-size="14" text-anchor="middle">Literal (0)</text></g><g id="edge2" class="edge"><title>initial-&gt;s1_1</title><path fill="none" stroke="#000" d="M64,-317.98C64,-311.675 64,-302.238 64,-291.813"/><polygon fill="#000" stroke="#000" points="67.5 -291.586 64 -281.586 60.5 -291.586 67.5 -291.586"/></g><g id="node3" class="node"><title>s1_2</title><polygon fill="#fff" stroke="#fff" points="110.233 -136.401 17.767 -136.401 5.767 -124.401 5.767 -89.599 17.767 -77.599 110.233 -77.599 122.233 -89.599 122.233 -124.401 110.233 -136.401"/><path fill="#fff" stroke="#fff" d="M17.7673,-136.401C11.7673,-136.401 5.76729,-130.401 5.76729,-124.401"/><path fill="#fff" stroke="#fff" d="M5.76729,-89.5986C5.76729,-83.5986 11.7673,-77.5986 17.7673,-77.5986"/><path fill="#fff" stroke="#fff" d="M110.233,-77.5986C116.233,-77.5986 122.233,-83.5986 122.233,-89.5986"/><path fill="#fff" stroke="#fff" d="M122.233,-124.401C122.233,-130.401 116.233,-136.401 110.233,-136.401"/><polyline fill="none" stroke="#000" points="110.233 -136.401 17.767 -136.401"/><path fill="none" stroke="#000" d="M17.7673,-136.401C11.7673,-136.401 5.76729,-130.401 5.76729,-124.401"/><polyline fill="none" stroke="#000" points="5.767 -124.401 5.767 -89.599"/><path fill="none" stroke="#000" d="M5.76729,-89.5986C5.76729,-83.5986 11.7673,-77.5986 17.7673,-77.5986"/><polyline fill="none" stroke="#000" points="17.767 -77.599 110.233 -77.599"/><path fill="none" stroke="#000" d="M110.233,-77.5986C116.233,-77.5986 122.233,-83.5986 122.233,-89.5986"/><polyline fill="none" stroke="#000" points="122.233 -89.599 122.233 -124.401"/><path fill="none" stroke="#000" d="M122.233,-124.401C122.233,-130.401 116.233,-136.401 110.233,-136.401"/><text x="64" y="-119.6" font-family="Times,serif" font-size="14" text-anchor="middle">BinaryExpression</text><text x="64" y="-102.8" font-family="Times,serif" font-size="14" text-anchor="middle">Identifier (i)</text><text x="64" y="-86" font-family="Times,serif" font-size="14" text-anchor="middle">Literal (10)</text></g><g id="edge3" class="edge"><title>s1_1-&gt;s1_2</title><path fill="none" stroke="#000" d="M64,-172.524C64,-163.777 64,-154.867 64,-146.572"/><polygon fill="#000" stroke="#000" points="67.5 -146.452 64 -136.452 60.5 -146.452 67.5 -146.452"/></g><g id="node4" class="node"><title>s1_4</title><polygon fill="#fff" stroke="#fff" points="110.977 -41.602 17.023 -41.602 5.023 -29.602 5.023 -12.398 17.023 -.398 110.977 -.398 122.977 -12.398 122.977 -29.602 110.977 -41.602"/><path fill="#fff" stroke="#fff" d="M17.0234,-41.6019C11.0234,-41.6019 5.02345,-35.6019 5.02345,-29.6019"/><path fill="#fff" stroke="#fff" d="M5.02345,-12.3981C5.02345,-6.3981 11.0234,-0.398095 17.0234,-0.398095"/><path fill="#fff" stroke="#fff" d="M110.977,-0.398095C116.977,-0.398095 122.977,-6.3981 122.977,-12.3981"/><path fill="#fff" stroke="#fff" d="M122.977,-29.6019C122.977,-35.6019 116.977,-41.6019 110.977,-41.6019"/><polyline fill="none" stroke="#000" points="110.977 -41.602 17.023 -41.602"/><path fill="none" stroke="#000" d="M17.0234,-41.6019C11.0234,-41.6019 5.02345,-35.6019 5.02345,-29.6019"/><polyline fill="none" stroke="#000" points="5.023 -29.602 5.023 -12.398"/><path fill="none" stroke="#000" d="M5.02345,-12.3981C5.02345,-6.3981 11.0234,-0.398095 17.0234,-0.398095"/><polyline fill="none" stroke="#000" points="17.023 -.398 110.977 -.398"/><path fill="none" stroke="#000" d="M110.977,-0.398095C116.977,-0.398095 122.977,-6.3981 122.977,-12.3981"/><polyline fill="none" stroke="#000" points="122.977 -12.398 122.977 -29.602"/><path fill="none" stroke="#000" d="M122.977,-29.6019C122.977,-35.6019 116.977,-41.6019 110.977,-41.6019"/><text x="64" y="-25.2" font-family="Times,serif" font-size="14" text-anchor="middle">UpdateExpression</text><text x="64" y="-8.4" font-family="Times,serif" font-size="14" text-anchor="middle">Identifier (i)</text></g><g id="edge5" class="edge"><title>s1_2-&gt;s1_4</title><path fill="none" stroke="none" d="M64,-77.5614C64,-69.2619 64,-60.1709 64,-51.7903"/><polygon fill="none" stroke="none" points="67.5 -51.668 64 -41.668 60.5 -51.668 67.5 -51.668"/></g></g></svg>