<svg xmlns="http://www.w3.org/2000/svg" xmlns:xlink="http://www.w3.org/1999/xlink" width="332pt" height="472pt" viewBox="0 0 332 472"><g id="graph1" class="graph" transform="scale(1 1) rotate(0) translate(4 468)"><title>_anonymous_0</title><g id="node1" class="node"><title>initial</title><ellipse cx="162" cy="-455" fill="#000" stroke="#000" rx="9" ry="9"/></g><g id="node3" class="node"><title>s1_1</title><polygon fill="#fff" stroke="#fff" points="214.617 -409.3 109.383 -409.3 97.383 -397.3 97.383 -312.7 109.383 -300.7 214.617 -300.7 226.617 -312.7 226.617 -397.3 214.617 -409.3"/><path fill="#fff" stroke="#fff" d="M109.383,-409.3C103.383,-409.3 97.3833,-403.3 97.3833,-397.3"/><path fill="#fff" stroke="#fff" d="M97.3833,-312.7C97.3833,-306.7 103.383,-300.7 109.383,-300.7"/><path fill="#fff" stroke="#fff" d="M214.617,-300.7C220.617,-300.7 226.617,-306.7 226.617,-312.7"/><path fill="#fff" stroke="#fff" d="M226.617,-397.3C226.617,-403.3 220.617,-409.3 214.617,-409.3"/><polyline fill="none" stroke="#000" points="214.617 -409.3 109.383 -409.3"/><path fill="none" stroke="#000" d="M109.383,-409.3C103.383,-409.3 97.3833,-403.3 97.3833,-397.3"/><polyline fill="none" stroke="#000" points="97.383 -397.3 97.383 -312.7"/><path fill="none" stroke="#000" d="M97.3833,-312.7C97.3833,-306.7 103.383,-300.7 109.383,-300.7"/><polyline fill="none" stroke="#000" points="109.383 -300.7 214.617 -300.7"/><path fill="none" stroke="#000" d="M214.617,-300.7C220.617,-300.7 226.617,-306.7 226.617,-312.7"/><polyline fill="none" stroke="#000" points="226.617 -312.7 226.617 -397.3"/><path fill="none" stroke="#000" d="M226.617,-397.3C226.617,-403.3 220.617,-409.3 214.617,-409.3"/><text x="162" y="-392.8" font-family="Times,serif" font-size="14" text-anchor="middle">Program</text><text x="162" y="-376" font-family="Times,serif" font-size="14" text-anchor="middle">ForStatement</text><text x="162" y="-359.2" font-family="Times,serif" font-size="14" text-anchor="middle">VariableDeclaration</text><text x="162" y="-342.4" font-family="Times,serif" font-size="14" text-anchor="middle">VariableDeclarator</text><text x="162" y="-325.6" font-family="Times,serif" font-size="14" text-anchor="middle">Identifier (i)</text><text x="162" y="-308.8" font-family="Times,serif" font-size="14" text-anchor="middle">Literal (0)</text></g><g id="edge2" class="edge"><title>initial-&gt;s1_1</title><path fill="none" stroke="#000" d="M162,-445.98C162,-439.675 162,-430.238 162,-419.813"/><polygon fill="#000" stroke="#000" points="165.5 -419.586 162 -409.586 158.5 -419.586 165.5 -419.586"/></g><g id="node2" class="node"><title>final</title><ellipse cx="257" cy="-21" fill="#000" stroke="#000" rx="9" ry="9"/><ellipse cx="257" cy="-21" fill="none" stroke="#000" rx="13" ry="13"/></g><g id="node4" class="node"><title>s1_2</title><polygon fill="#fff" stroke="#fff" points="208.233 -264.401 115.767 -264.401 103.767 -252.401 103.767 -217.599 115.767 -205.599 208.233 -205.599 220.233 -217.599 220.233 -252.401 208.233 -264.401"/><path fill="#fff" stroke="#fff" d="M115.767,-264.401C109.767,-264.401 103.767,-258.401 103.767,-252.401"/><path fill="#fff" stroke="#fff" d="M103.767,-217.599C103.767,-211.599 109.767,-205.599 115.767,-205.599"/><path fill="#fff" stroke="#fff" d="M208.233,-205.599C214.233,-205.599 220.233,-211.599 220.233,-217.599"/><path fill="#fff" stroke="#fff" d="M220.233,-252.401C220.233,-258.401 214.233,-264.401 208.233,-264.401"/><polyline fill="none" stroke="#000" points="208.233 -264.401 115.767 -264.401"/><path fill="none" stroke="#000" d="M115.767,-264.401C109.767,-264.401 103.767,-258.401 103.767,-252.401"/><polyline fill="none" stroke="#000" points="103.767 -252.401 103.767 -217.599"/><path fill="none" stroke="#000" d="M103.767,-217.599C103.767,-211.599 109.767,-205.599 115.767,-205.599"/><polyline fill="none" stroke="#000" points="115.767 -205.599 208.233 -205.599"/><path fill="none" stroke="#000" d="M208.233,-205.599C214.233,-205.599 220.233,-211.599 220.233,-217.599"/><polyline fill="none" stroke="#000" points="220.233 -217.599 220.233 -252.401"/><path fill="none" stroke="#000" d="M220.233,-252.401C220.233,-258.401 214.233,-264.401 208.233,-264.401"/><text x="162" y="-247.6" font-family="Times,serif" font-size="14" text-anchor="middle">BinaryExpression</text><text x="162" y="-230.8" font-family="Times,serif" font-size="14" text-anchor="middle">Identifier (i)</text><text x="162" y="-214" font-family="Times,serif" font-size="14" text-anchor="middle">Literal (10)</text></g><g id="edge3" class="edge"><title>s1_1-&gt;s1_2</title><path fill="none" stroke="#000" d="M162,-300.524C162,-291.777 162,-282.867 162,-274.572"/><polygon fill="#000" stroke="#000" points="165.5 -274.452 162 -264.452 158.5 -274.452 165.5 -274.452"/></g><g id="node5" class="node"><title>s1_3</title><polygon fill="#fff" stroke="#fff" points="122.147 -170 11.853 -170 -.147 -158 -.147 -90 11.853 -78 122.147 -78 134.147 -90 134.147 -158 122.147 -170"/><path fill="#fff" stroke="#fff" d="M11.8526,-170C5.85263,-170 -0.147372,-164 -0.147372,-158"/><path fill="#fff" stroke="#fff" d="M-0.147372,-90C-0.147372,-84 5.85263,-78 11.8526,-78"/><path fill="#fff" stroke="#fff" d="M122.147,-78C128.147,-78 134.147,-84 134.147,-90"/><path fill="#fff" stroke="#fff" d="M134.147,-158C134.147,-164 128.147,-170 122.147,-170"/><polyline fill="none" stroke="#000" points="122.147 -170 11.853 -170"/><path fill="none" stroke="#000" d="M11.8526,-170C5.85263,-170 -0.147372,-164 -0.147372,-158"/><polyline fill="none" stroke="#000" points="-.147 -158 -.147 -90"/><path fill="none" stroke="#000" d="M-0.147372,-90C-0.147372,-84 5.85263,-78 11.8526,-78"/><polyline fill="none" stroke="#000" points="11.853 -78 122.147 -78"/><path fill="none" stroke="#000" d="M122.147,-78C128.147,-78 134.147,-84 134.147,-90"/><polyline fill="none" stroke="#000" points="134.147 -90 134.147 -158"/><path fill="none" stroke="#000" d="M134.147,-158C134.147,-164 128.147,-170 122.147,-170"/><text x="67" y="-153.4" font-family="Times,serif" font-size="14" text-anchor="middle">BlockStatement</text><text x="67" y="-136.6" font-family="Times,serif" font-size="14" text-anchor="middle">ExpressionStatement</text><text x="67" y="-119.8" font-family="Times,serif" font-size="14" text-anchor="middle">CallExpression</text><text x="67" y="-103" font-family="Times,serif" font-size="14" text-anchor="middle">Identifier (foo)</text><text x="67" y="-86.2" font-family="Times,serif" font-size="14" text-anchor="middle">Identifier (i)</text></g><g id="edge4" class="edge"><title>s1_2-&gt;s1_3</title><path fill="none" stroke="#000" d="M137.288,-205.646C129.826,-197.085 121.382,-187.396 113,-177.779"/><polygon fill="#000" stroke="#000" points="115.52 -175.343 106.311 -170.104 110.243 -179.942 115.52 -175.343"/></g><g id="node7" class="node"><title>s1_5</title><polygon fill="#fff" stroke="#fff" points="312.147 -153.401 201.853 -153.401 189.853 -141.401 189.853 -106.599 201.853 -94.599 312.147 -94.599 324.147 -106.599 324.147 -141.401 312.147 -153.401"/><path fill="#fff" stroke="#fff" d="M201.853,-153.401C195.853,-153.401 189.853,-147.401 189.853,-141.401"/><path fill="#fff" stroke="#fff" d="M189.853,-106.599C189.853,-100.599 195.853,-94.5986 201.853,-94.5986"/><path fill="#fff" stroke="#fff" d="M312.147,-94.5986C318.147,-94.5986 324.147,-100.599 324.147,-106.599"/><path fill="#fff" stroke="#fff" d="M324.147,-141.401C324.147,-147.401 318.147,-153.401 312.147,-153.401"/><polyline fill="none" stroke="#000" points="312.147 -153.401 201.853 -153.401"/><path fill="none" stroke="#000" d="M201.853,-153.401C195.853,-153.401 189.853,-147.401 189.853,-141.401"/><polyline fill="none" stroke="#000" points="189.853 -141.401 189.853 -106.599"/><path fill="none" stroke="#000" d="M189.853,-106.599C189.853,-100.599 195.853,-94.5986 201.853,-94.5986"/><polyline fill="none" stroke="#000" points="201.853 -94.599 312.147 -94.599"/><path fill="none" stroke="#000" d="M312.147,-94.5986C318.147,-94.5986 324.147,-100.599 324.147,-106.599"/><polyline fill="none" stroke="#000" points="324.147 -106.599 324.147 -141.401"/><path fill="none" stroke="#000" d="M324.147,-141.401C324.147,-147.401 318.147,-153.401 312.147,-153.401"/><text x="257" y="-136.6" font-family="Times,serif" font-size="14" text-anchor="middle">ExpressionStatement</text><text x="257" y="-119.8" font-family="Times,serif" font-size="14" text-anchor="middle">CallExpression</text><text x="257" y="-103" font-family="Times,serif" font-size="14" text-anchor="middle">Identifier (bar)</text></g><g id="edge7" class="edge"><title>s1_2-&gt;s1_5</title><path fill="none" stroke="#000" d="M186.712,-205.646C198.587,-192.021 212.952,-175.539 225.593,-161.035"/><polygon fill="#000" stroke="#000" points="228.48 -163.05 232.412 -153.212 223.203 -158.451 228.48 -163.05"/></g><g id="node6" class="node"><title>s1_4</title><polygon fill="#fff" stroke="#fff" points="160.977 -41.602 67.023 -41.602 55.023 -29.602 55.023 -12.398 67.023 -.398 160.977 -.398 172.977 -12.398 172.977 -29.602 160.977 -41.602"/><path fill="#fff" stroke="#fff" d="M67.0234,-41.6019C61.0234,-41.6019 55.0234,-35.6019 55.0234,-29.6019"/><path fill="#fff" stroke="#fff" d="M55.0234,-12.3981C55.0234,-6.3981 61.0234,-0.398095 67.0234,-0.398095"/><path fill="#fff" stroke="#fff" d="M160.977,-0.398095C166.977,-0.398095 172.977,-6.3981 172.977,-12.3981"/><path fill="#fff" stroke="#fff" d="M172.977,-29.6019C172.977,-35.6019 166.977,-41.6019 160.977,-41.6019"/><polyline fill="none" stroke="#000" points="160.977 -41.602 67.023 -41.602"/><path fill="none" stroke="#000" d="M67.0234,-41.6019C61.0234,-41.6019 55.0234,-35.6019 55.0234,-29.6019"/><polyline fill="none" stroke="#000" points="55.023 -29.602 55.023 -12.398"/><path fill="none" stroke="#000" d="M55.0234,-12.3981C55.0234,-6.3981 61.0234,-0.398095 67.0234,-0.398095"/><polyline fill="none" stroke="#000" points="67.023 -.398 160.977 -.398"/><path fill="none" stroke="#000" d="M160.977,-0.398095C166.977,-0.398095 172.977,-6.3981 172.977,-12.3981"/><polyline fill="none" stroke="#000" points="172.977 -12.398 172.977 -29.602"/><path fill="none" stroke="#000" d="M172.977,-29.6019C172.977,-35.6019 166.977,-41.6019 160.977,-41.6019"/><text x="114" y="-25.2" font-family="Times,serif" font-size="14" text-anchor="middle">UpdateExpression</text><text x="114" y="-8.4" font-family="Times,serif" font-size="14" text-anchor="middle">Identifier (i)</text></g><g id="edge5" class="edge"><title>s1_3-&gt;s1_4</title><path fill="none" stroke="#000" d="M88.0256,-77.8174C92.2417,-68.7572 96.5653,-59.4661 100.445,-51.1281"/><polygon fill="#000" stroke="#000" points="103.718 -52.392 104.763 -41.849 97.371 -49.439 103.718 -52.392"/></g><g id="edge6" class="edge"><title>s1_4-&gt;s1_2</title><path fill="none" stroke="#000" d="M126.427,-41.7344C132.399,-52.1392 139.091,-65.3421 143,-78 155.006,-116.879 159.472,-163.404 161.108,-195.471"/><polygon fill="#000" stroke="#000" points="157.624 -195.923 161.561 -205.76 164.618 -195.615 157.624 -195.923"/></g><g id="edge8" class="edge"><title>s1_5-&gt;final</title><path fill="none" stroke="#000" d="M257,-94.5971C257,-78.6959 257,-59.1538 257,-44.3521"/><polygon fill="#000" stroke="#000" points="260.5 -44.096 257 -34.096 253.5 -44.096 260.5 -44.096"/></g></g></svg>